<svg xmlns="http://www.w3.org/2000/svg" height="48" viewBox="0 96 960 960" width="48"><path d="M798.962 392.038v448.253q0 22.274-16.199 38.472-16.198 16.199-38.427 16.199H215.664q-22.229 0-38.427-16.199-16.199-16.198-16.199-38.427V311.664q0-22.229 16.199-38.427 16.198-16.199 38.472-16.199h448.253l135 135Zm-30.193 13.249L650.713 287.231H215.846q-10.769 0-17.692 6.923t-6.923 17.692v528.308q0 10.769 6.923 17.692t17.692 6.923h528.308q10.769 0 17.692-6.923t6.923-17.692V405.287ZM479.765 754.039q29.549 0 50.777-20.993 21.227-20.992 21.227-50.541 0-29.55-20.992-50.777-20.992-21.228-50.542-21.228-29.549 0-50.777 20.992-21.227 20.993-21.227 50.542 0 29.55 20.992 50.777 20.992 21.228 50.542 21.228ZM268.192 475.731h294.654V364.192H268.192v111.539Zm-76.961-70.444v459.482-577.538 118.056Z"/></svg>