<svg width="121" height="121" viewBox="0 0 121 121" fill="none" xmlns="http://www.w3.org/2000/svg">
  <rect x="0.5" y="0.5" width="120" height="120" rx="9.5" fill="#FAFAFA" stroke="black" stroke-dasharray="11 11"/>
  <path d="M56.7507 61.1668H65.2507C72.334 61.1668 75.1673 58.3335 75.1673 51.2502V42.7502C75.1673 35.6668 72.334 32.8335 65.2507 32.8335H56.7507C49.6673 32.8335 46.834 35.6668 46.834 42.7502V51.2502C46.834 58.3335 49.6673 61.1668 56.7507 61.1668Z" stroke="#292D32" stroke-width="1.5" stroke-linecap="round" stroke-linejoin="round"/>
  <path d="M56.7493 44.1667C58.3142 44.1667 59.5827 42.8981 59.5827 41.3333C59.5827 39.7685 58.3142 38.5 56.7493 38.5C55.1845 38.5 53.916 39.7685 53.916 41.3333C53.916 42.8981 55.1845 44.1667 56.7493 44.1667Z" stroke="#292D32" stroke-width="1.5" stroke-linecap="round" stroke-linejoin="round"/>
  <path d="M47.7832 56.846L54.7674 52.1568C55.8865 51.406 57.5015 51.491 58.5074 52.3551L58.9749 52.766C60.0799 53.7151 61.8649 53.7151 62.9699 52.766L68.8632 47.7085C69.9682 46.7593 71.7532 46.7593 72.8582 47.7085L75.1674 49.6918" stroke="#292D32" stroke-width="1.5" stroke-linecap="round" stroke-linejoin="round"/>
  <path d="M33.2344 82.5078H35.4297V89.9453C35.4297 90.5859 35.4844 91.0391 35.5938 91.3047C35.7083 91.5703 35.8932 91.7839 36.1484 91.9453C36.4089 92.1016 36.7214 92.1797 37.0859 92.1797C37.4714 92.1797 37.8021 92.0911 38.0781 91.9141C38.3594 91.737 38.5521 91.513 38.6562 91.2422C38.7656 90.9661 38.8203 90.4427 38.8203 89.6719V82.5078H41.0156V89.3594C41.0156 90.5156 40.9505 91.3177 40.8203 91.7656C40.6901 92.2135 40.4401 92.6458 40.0703 93.0625C39.7057 93.4792 39.2839 93.7891 38.8047 93.9922C38.3255 94.1901 37.7682 94.2891 37.1328 94.2891C36.2995 94.2891 35.5729 94.099 34.9531 93.7188C34.3385 93.3333 33.8984 92.8542 33.6328 92.2812C33.3672 91.7031 33.2344 90.7292 33.2344 89.3594V82.5078ZM45.4453 85.5V86.4375C45.8307 86.0521 46.2474 85.763 46.6953 85.5703C47.1432 85.3776 47.6224 85.2812 48.1328 85.2812C49.2422 85.2812 50.1849 85.7005 50.9609 86.5391C51.737 87.3776 52.125 88.4531 52.125 89.7656C52.125 91.0312 51.724 92.0911 50.9219 92.9453C50.1198 93.7943 49.1693 94.2188 48.0703 94.2188C47.5807 94.2188 47.125 94.1328 46.7031 93.9609C46.2812 93.7839 45.862 93.4974 45.4453 93.1016V97.1094H43.3281V85.5H45.4453ZM47.6875 87.25C47.0156 87.25 46.4583 87.4792 46.0156 87.9375C45.5729 88.3958 45.3516 88.9948 45.3516 89.7344C45.3516 90.4896 45.5729 91.1016 46.0156 91.5703C46.4583 92.0339 47.0156 92.2656 47.6875 92.2656C48.3385 92.2656 48.8854 92.0286 49.3281 91.5547C49.776 91.0807 50 90.4766 50 89.7422C50 89.013 49.7812 88.4167 49.3438 87.9531C48.9062 87.4844 48.3542 87.25 47.6875 87.25ZM53.6641 82.2188H55.7969V94H53.6641V82.2188ZM61.7266 85.2812C62.5286 85.2812 63.2812 85.4818 63.9844 85.8828C64.6927 86.2839 65.2448 86.8281 65.6406 87.5156C66.0365 88.2031 66.2344 88.9453 66.2344 89.7422C66.2344 90.5443 66.0339 91.2943 65.6328 91.9922C65.237 92.6901 64.6953 93.237 64.0078 93.6328C63.3203 94.0234 62.5625 94.2188 61.7344 94.2188C60.5156 94.2188 59.474 93.7865 58.6094 92.9219C57.75 92.0521 57.3203 90.9974 57.3203 89.7578C57.3203 88.4297 57.8073 87.3229 58.7812 86.4375C59.6354 85.6667 60.6172 85.2812 61.7266 85.2812ZM61.7578 87.2891C61.0964 87.2891 60.5443 87.5208 60.1016 87.9844C59.6641 88.4427 59.4453 89.0312 59.4453 89.75C59.4453 90.4896 59.6615 91.0885 60.0938 91.5469C60.5312 92.0052 61.0833 92.2344 61.75 92.2344C62.4167 92.2344 62.9714 92.0026 63.4141 91.5391C63.8568 91.0755 64.0781 90.4792 64.0781 89.75C64.0781 89.0208 63.8594 88.4297 63.4219 87.9766C62.9896 87.5182 62.4349 87.2891 61.7578 87.2891ZM74.2656 85.5H76.3906V94H74.2656V93.1016C73.849 93.4974 73.4297 93.7839 73.0078 93.9609C72.5911 94.1328 72.138 94.2188 71.6484 94.2188C70.5495 94.2188 69.599 93.7943 68.7969 92.9453C67.9948 92.0911 67.5938 91.0312 67.5938 89.7656C67.5938 88.4531 67.9818 87.3776 68.7578 86.5391C69.5339 85.7005 70.4766 85.2812 71.5859 85.2812C72.0964 85.2812 72.5755 85.3776 73.0234 85.5703C73.4714 85.763 73.8854 86.0521 74.2656 86.4375V85.5ZM72.0234 87.25C71.362 87.25 70.8125 87.4844 70.375 87.9531C69.9375 88.4167 69.7188 89.013 69.7188 89.7422C69.7188 90.4766 69.9401 91.0807 70.3828 91.5547C70.8307 92.0286 71.3802 92.2656 72.0312 92.2656C72.7031 92.2656 73.2604 92.0339 73.7031 91.5703C74.1458 91.1016 74.3672 90.4896 74.3672 89.7344C74.3672 88.9948 74.1458 88.3958 73.7031 87.9375C73.2604 87.4792 72.7005 87.25 72.0234 87.25ZM84.8281 82.2188H86.9531V94H84.8281V93.1016C84.4115 93.4974 83.9922 93.7839 83.5703 93.9609C83.1536 94.1328 82.7005 94.2188 82.2109 94.2188C81.112 94.2188 80.1615 93.7943 79.3594 92.9453C78.5573 92.0911 78.1562 91.0312 78.1562 89.7656C78.1562 88.4531 78.5443 87.3776 79.3203 86.5391C80.0964 85.7005 81.0391 85.2812 82.1484 85.2812C82.6589 85.2812 83.138 85.3776 83.5859 85.5703C84.0339 85.763 84.4479 86.0521 84.8281 86.4375V82.2188ZM82.5859 87.25C81.9245 87.25 81.375 87.4844 80.9375 87.9531C80.5 88.4167 80.2812 89.013 80.2812 89.7422C80.2812 90.4766 80.5026 91.0807 80.9453 91.5547C81.3932 92.0286 81.9427 92.2656 82.5938 92.2656C83.2656 92.2656 83.8229 92.0339 84.2656 91.5703C84.7083 91.1016 84.9297 90.4896 84.9297 89.7344C84.9297 88.9948 84.7083 88.3958 84.2656 87.9375C83.8229 87.4792 83.263 87.25 82.5859 87.25Z" fill="black"/>
</svg>
